<?xml version="1.0" encoding="UTF-8"?> <svg xmlns="http://www.w3.org/2000/svg" xmlns:xlink="http://www.w3.org/1999/xlink" width="167px" height="173px" viewBox="0 0 167 173"> <!-- Generator: Sketch 48 (47235) - http://www.bohemiancoding.com/sketch --> <title>north-logo</title> <desc>Created with Sketch.</desc> <defs></defs> <g id="Page-1" stroke="none" stroke-width="1" fill="none" fill-rule="evenodd"> <g id="north-logo"> <g id="Group" transform="translate(72.000000, 80.000000)"> <polygon id="Shape" points="0.5 0.6 0.5 2.3 2.4 2.3 2.4 0.6 2.9 0.6 2.9 4.6 2.4 4.6 2.4 2.7 0.5 2.7 0.5 4.6 0 4.6 0 0.6"></polygon> <polygon id="Shape" points="3.8 0.6 4.3 0.6 4.3 4.1 6 4.1 6 4.5 3.8 4.5"></polygon> <polygon id="Shape" points="6.8 1 5.6 1 5.6 0.6 8.5 0.6 8.5 1 7.3 1 7.3 4.5 6.8 4.5"></polygon> <path d="M10.1,4.6 L8.8,0.6 L9.4,0.6 L10,2.6 C10.2,3.1 10.3,3.6 10.4,4.1 C10.5,3.6 10.7,3.1 10.9,2.6 L11.6,0.6 L12.1,0.6 L10.7,4.6 L10.1,4.6 Z" id="Shape"></path> <path d="M12.1,4.3 C12.1,4.1 12.2,3.9 12.5,3.9 C12.7,3.9 12.8,4.1 12.8,4.3 C12.8,4.5 12.7,4.7 12.4,4.7 C12.2,4.7 12.1,4.5 12.1,4.3 Z" id="Shape"></path> <path d="M16,3.1 C16,4.2 15.3,4.6 14.6,4.6 C13.8,4.6 13.2,4 13.2,3.1 C13.2,2.1 13.8,1.6 14.6,1.6 C15.4,1.7 16,2.3 16,3.1 Z M13.7,3.2 C13.7,3.8 14.1,4.3 14.6,4.3 C15.1,4.3 15.5,3.8 15.5,3.2 C15.5,2.7 15.3,2.1 14.6,2.1 C13.9,2.1 13.7,2.6 13.7,3.2 Z" id="Shape"></path> <path d="M16.7,2.6 C16.7,2.3 16.7,2 16.7,1.7 L17.2,1.7 L17.2,2.3 C17.3,1.9 17.6,1.7 18,1.7 C18.1,1.7 18.1,1.7 18.1,1.7 L18.1,2.2 C18,2.2 18,2.2 17.9,2.2 C17.5,2.2 17.3,2.5 17.2,2.9 C17.2,3 17.2,3.1 17.2,3.1 L17.2,4.6 L16.7,4.6 L16.7,2.6 Z" id="Shape"></path> <path d="M21,1.7 C21,1.9 21,2.1 21,2.5 L21,4.2 C21,4.9 20.9,5.3 20.6,5.5 C20.3,5.8 19.9,5.8 19.6,5.8 C19.3,5.8 18.9,5.7 18.6,5.6 L18.7,5.2 C18.9,5.3 19.2,5.4 19.5,5.4 C20,5.4 20.4,5.1 20.4,4.4 L20.4,4.1 C20.2,4.4 19.9,4.6 19.5,4.6 C18.8,4.6 18.3,4 18.3,3.2 C18.3,2.2 18.9,1.7 19.6,1.7 C20.1,1.7 20.4,2 20.5,2.2 L20.5,1.8 L21,1.8 L21,1.7 Z M20.5,2.9 C20.5,2.8 20.5,2.7 20.5,2.7 C20.4,2.4 20.2,2.2 19.8,2.2 C19.3,2.2 19,2.6 19,3.3 C19,3.9 19.3,4.3 19.8,4.3 C20.1,4.3 20.4,4.1 20.5,3.8 C20.5,3.7 20.5,3.6 20.5,3.5 L20.5,2.9 Z" id="Shape"></path> </g> <path d="M153.8,111.9 C153.8,111.9 167,98.4 167,70.7 C167,43 144.8,14.5 111.2,14.5 C111.2,14.5 135.7,9.5 153.2,27 C153.2,27 149.7,0.8 108.4,0.8 C67.1,0.8 69.2,25 69.2,29.8 L48.8,41.1 C48.8,41.1 43.3,44.1 43.8,47.3 C43.8,47.3 16.3,53.1 9.3,55.3 C2.3,57.5 -0.9,59.3 2.1,65.5 C2.1,65.5 -1.3,75.8 1,80.5 C4.6,87.8 6.6,85.7 7.6,88.5 C8.6,91.3 10.4,99.5 19.6,102 C19.6,102 15.4,78.8 35.6,78.8 C55.8,78.8 56.4,98.3 56.4,102 C56.4,105.7 51.9,127.8 29.4,115.2 C29.4,115.2 28.3,123.7 37.8,127.4 C37.8,127.4 42.6,148.4 56.4,148.4 C70.2,148.4 73.2,136.4 72.9,131.4 C72.9,131.4 62.4,137.9 60.9,128.4 C59.4,118.9 81.2,115.2 81.2,136.4 C81.2,157.6 57.9,157.6 49.2,157.6 C49.2,157.6 57.2,172.5 75.7,172.5 C94.2,172.5 114.9,167.4 114.9,137.9 C114.9,108.4 93.1,99.4 93.1,99.4 C93.1,99.4 121.3,110.4 121.3,137.6 C121.3,155.8 115.3,160.4 115.3,160.4 C115.3,160.4 148.1,149.9 148.1,109.2 C148.1,68.5 106.6,55.2 106.6,55.2 C106.6,55.2 153.8,60.9 153.8,111.9 Z M66.8,58.2 C64.3,58.2 61.6,54.6 61.6,54.6 C60.2,53.1 59.7,50.2 64.2,50.2 C68.7,50.2 75.2,50.3 77.6,51.2 C80.1,52.1 70.9,58.2 66.8,58.2 Z" id="Shape" fill="#FFFFFF" fill-rule="nonzero"></path> </g> </g> </svg> 