<?xml version="1.0" encoding="UTF-8" standalone="no"?>
<svg width="38px" height="35px" viewBox="0 0 38 35" version="1.1" xmlns="http://www.w3.org/2000/svg" xmlns:xlink="http://www.w3.org/1999/xlink">
    <!-- Generator: Sketch 39.1 (31720) - http://www.bohemiancoding.com/sketch -->
    <title>ic_desktop_windows_black_24px</title>
    <desc>Created with Sketch.</desc>
    <defs></defs>
    <g id="Page-1" stroke="none" stroke-width="1" fill="none" fill-rule="evenodd">
        <g id="Web-/-Игрок" transform="translate(-295.000000, -391.000000)">
            <g id="Игрок" transform="translate(290.000000, 212.000000)">
                <g id="Девайсы" transform="translate(0.000000, 169.000000)">
                    <g id="Монитор">
                        <g id="ic_desktop_windows_black_24px" transform="translate(0.000000, 3.000000)">
                            <g id="Group">
                                <polygon id="Shape" points="0 0 48 0 48 48 0 48"></polygon>
                                <path d="M39.5454545,7 L8.45454545,7 C6.55454545,7 5,8.55454545 5,10.4545455 L5,31.1818182 C5,33.0818182 6.55454545,34.6363636 8.45454545,34.6363636 L20.5454545,34.6363636 L20.5454545,38.0909091 L17.0909091,38.0909091 L17.0909091,41.5454545 L30.9090909,41.5454545 L30.9090909,38.0909091 L27.4545455,38.0909091 L27.4545455,34.6363636 L39.5454545,34.6363636 C41.4454545,34.6363636 43,33.0818182 43,31.1818182 L43,10.4545455 C43,8.55454545 41.4454545,7 39.5454545,7 L39.5454545,7 Z M39.5454545,31.1818182 L8.45454545,31.1818182 L8.45454545,10.4545455 L39.5454545,10.4545455 L39.5454545,31.1818182 L39.5454545,31.1818182 Z" id="Shape" fill="#2b2a28"></path>
                            </g>
                        </g>
                    </g>
                </g>
            </g>
        </g>
    </g>
</svg>